<svg width="16" height="16" viewBox="0 0 16 16" fill="none" xmlns="http://www.w3.org/2000/svg">
<path d="M14.188 12.4929C13.8511 11.695 13.3623 10.9702 12.7487 10.359C12.137 9.74594 11.4123 9.25718 10.6147 8.91967C10.6076 8.9161 10.6005 8.91431 10.5933 8.91074C11.7058 8.10717 12.429 6.79824 12.429 5.32146C12.429 2.87503 10.4469 0.892883 8.00046 0.892883C5.55403 0.892883 3.57189 2.87503 3.57189 5.32146C3.57189 6.79824 4.29511 8.10717 5.40761 8.91253C5.40046 8.9161 5.39332 8.91788 5.38618 8.92145C4.58618 9.25896 3.86832 9.74288 3.25225 10.3607C2.63923 10.9725 2.15047 11.6971 1.81296 12.4947C1.4814 13.2755 1.30257 14.1126 1.28618 14.9607C1.2857 14.9798 1.28904 14.9988 1.29601 15.0165C1.30297 15.0343 1.31342 15.0504 1.32674 15.0641C1.34005 15.0777 1.35596 15.0886 1.37353 15.096C1.3911 15.1034 1.40997 15.1072 1.42903 15.1072H2.50046C2.57903 15.1072 2.64153 15.0447 2.64332 14.9679C2.67903 13.5893 3.23261 12.2982 4.21118 11.3197C5.22368 10.3072 6.56832 9.75003 8.00046 9.75003C9.43261 9.75003 10.7772 10.3072 11.7897 11.3197C12.7683 12.2982 13.3219 13.5893 13.3576 14.9679C13.3594 15.0465 13.4219 15.1072 13.5005 15.1072H14.5719C14.591 15.1072 14.6098 15.1034 14.6274 15.096C14.645 15.0886 14.6609 15.0777 14.6742 15.0641C14.6875 15.0504 14.698 15.0343 14.7049 15.0165C14.7119 14.9988 14.7152 14.9798 14.7147 14.9607C14.6969 14.1072 14.5201 13.2768 14.188 12.4929ZM8.00046 8.39288C7.18082 8.39288 6.40939 8.07324 5.82903 7.49288C5.24868 6.91253 4.92903 6.1411 4.92903 5.32146C4.92903 4.50181 5.24868 3.73038 5.82903 3.15003C6.40939 2.56967 7.18082 2.25003 8.00046 2.25003C8.82011 2.25003 9.59153 2.56967 10.1719 3.15003C10.7522 3.73038 11.0719 4.50181 11.0719 5.32146C11.0719 6.1411 10.7522 6.91253 10.1719 7.49288C9.59153 8.07324 8.82011 8.39288 8.00046 8.39288Z" fill="#F96B43"/>
</svg>
