<svg width="17" height="16" viewBox="0 0 17 16" fill="none" xmlns="http://www.w3.org/2000/svg">
<g clip-path="url(#clip0_60_66266)">
<path d="M7.33046 8C7.33046 8.22733 7.42076 8.44535 7.58151 8.60609C7.74225 8.76684 7.96027 8.85714 8.1876 8.85714C8.41493 8.85714 8.63295 8.76684 8.79369 8.60609C8.95444 8.44535 9.04474 8.22733 9.04474 8C9.04474 7.77267 8.95444 7.55465 8.79369 7.39391C8.63295 7.23316 8.41493 7.14286 8.1876 7.14286C7.96027 7.14286 7.74225 7.23316 7.58151 7.39391C7.42076 7.55465 7.33046 7.77267 7.33046 8ZM10.9019 8C10.9019 8.22733 10.9922 8.44535 11.1529 8.60609C11.3137 8.76684 11.5317 8.85714 11.759 8.85714C11.9864 8.85714 12.2044 8.76684 12.3651 8.60609C12.5259 8.44535 12.6162 8.22733 12.6162 8C12.6162 7.77267 12.5259 7.55465 12.3651 7.39391C12.2044 7.23316 11.9864 7.14286 11.759 7.14286C11.5317 7.14286 11.3137 7.23316 11.1529 7.39391C10.9922 7.55465 10.9019 7.77267 10.9019 8ZM3.75903 8C3.75903 8.22733 3.84934 8.44535 4.01008 8.60609C4.17083 8.76684 4.38884 8.85714 4.61617 8.85714C4.8435 8.85714 5.06152 8.76684 5.22226 8.60609C5.38301 8.44535 5.47332 8.22733 5.47332 8C5.47332 7.77267 5.38301 7.55465 5.22226 7.39391C5.06152 7.23316 4.8435 7.14286 4.61617 7.14286C4.38884 7.14286 4.17083 7.23316 4.01008 7.39391C3.84934 7.55465 3.75903 7.77267 3.75903 8ZM15.5662 4.9C15.1626 3.94107 14.584 3.08036 13.8465 2.34107C13.1142 1.60607 12.2448 1.02182 11.2876 0.621429C10.3055 0.208929 9.2626 0 8.1876 0H8.15189C7.06974 0.00535714 6.02153 0.219643 5.03582 0.641071C4.08681 1.04557 3.22557 1.63085 2.5001 2.36429C1.76974 3.10179 1.19653 3.95893 0.800101 4.91429C0.389387 5.90357 0.182244 6.95536 0.187601 8.0375C0.193661 9.27763 0.487051 10.4995 1.04474 11.6071V14.3214C1.04474 14.5393 1.13129 14.7482 1.28533 14.9023C1.43938 15.0563 1.64832 15.1429 1.86617 15.1429H4.58224C5.68991 15.7006 6.91176 15.9939 8.15189 16H8.18939C9.25903 16 10.2965 15.7929 11.2733 15.3875C12.2257 14.9919 13.0918 14.4144 13.8233 13.6875C14.5608 12.9571 15.1412 12.1036 15.5465 11.1518C15.968 10.1661 16.1822 9.11786 16.1876 8.03572C16.193 6.94821 15.9822 5.89286 15.5662 4.9ZM12.868 12.7214C11.6162 13.9607 9.95546 14.6429 8.1876 14.6429H8.15724C7.08046 14.6375 6.01082 14.3696 5.06617 13.8661L4.91617 13.7857H2.40189V11.2714L2.32153 11.1214C1.81796 10.1768 1.5501 9.10714 1.54474 8.03036C1.5376 6.25 2.21796 4.57857 3.46617 3.31964C4.7126 2.06071 6.37867 1.36429 8.15903 1.35714H8.18939C9.08224 1.35714 9.94831 1.53036 10.7644 1.87321C11.5608 2.20714 12.2751 2.6875 12.8894 3.30179C13.5019 3.91429 13.984 4.63036 14.318 5.42679C14.6644 6.25179 14.8376 7.12679 14.834 8.03036C14.8233 9.80893 14.1251 11.475 12.868 12.7214Z" fill="white" fill-opacity="0.6"/>
</g>
<defs>
<clipPath id="clip0_60_66266">
<rect width="16" height="16" fill="white" transform="translate(0.1875)"/>
</clipPath>
</defs>
</svg>
