<svg width="28" height="28" viewBox="0 0 28 28" fill="none" xmlns="http://www.w3.org/2000/svg">
<path fill-rule="evenodd" clip-rule="evenodd" d="M9.82221 13.7243L11.9253 11.4258C11.2357 10.3472 12.0091 8.91478 13.2996 8.91478C14.467 8.91478 15.2506 10.108 14.8044 11.1763L17.127 12.9691C17.6405 12.5755 18.3428 12.5225 18.9102 12.8394L20.8205 10.8633C20.1721 9.78393 20.9478 8.39106 22.2188 8.39106C23.6664 8.39106 24.3964 10.1517 23.3717 11.1775C22.8583 11.6915 22.0633 11.8059 21.4259 11.4499L19.5155 13.426C20.1636 14.5047 19.3886 15.8982 18.1173 15.8982C16.9498 15.8982 16.1662 14.705 16.6124 13.6367L14.2898 11.8439C13.7892 12.2276 13.1072 12.2887 12.5453 11.9945L10.4421 14.293C11.1318 15.3717 10.3583 16.804 9.0679 16.804C7.62035 16.804 6.89017 15.0436 7.91501 14.0176C8.41659 13.5155 9.18931 13.3931 9.82221 13.7243ZM6.06297 4.19112C5.82967 4.19112 5.64055 4.00179 5.64055 3.76823C5.64055 3.53335 5.82732 3.34534 6.07153 3.34534C6.30483 3.34534 6.49395 3.53468 6.49395 3.76823C6.49401 4.00312 6.30724 4.19112 6.06297 4.19112ZM4.36227 4.19112C4.12897 4.19112 3.93985 4.00179 3.93985 3.76823C3.93985 3.53335 4.12662 3.34534 4.37084 3.34534C4.60413 3.34534 4.79325 3.53468 4.79325 3.76823C4.79325 4.00312 4.60654 4.19112 4.36227 4.19112ZM5.82322 4.99092C5.9608 4.80298 6.22457 4.76232 6.4123 4.90006C6.60003 5.0378 6.64065 5.30186 6.50306 5.48981C5.87934 6.33975 4.6168 6.38017 3.94402 5.55101C3.79732 5.37037 3.82466 5.10486 4.00509 4.958C4.18552 4.81113 4.45073 4.8385 4.59743 5.01913C4.91388 5.40916 5.52113 5.40167 5.82322 4.99092ZM5.21693 1.47944C3.5799 1.47944 2.25255 2.80822 2.25255 4.44715C2.25255 6.08608 3.57984 7.41485 5.21693 7.41485C6.85403 7.41485 8.18131 6.08608 8.18131 4.44715C8.18131 2.80822 6.85397 1.47944 5.21693 1.47944ZM6.71572 2.94668C5.88803 2.11806 4.54584 2.11806 3.71815 2.94668C2.89046 3.7753 2.89046 5.119 3.71815 5.94761C4.54584 6.77623 5.88803 6.77623 6.71572 5.94761C7.54341 5.119 7.54341 3.7753 6.71572 2.94668ZM8.89531 0.845775H1.77806C1.26567 0.845775 0.844828 1.26703 0.844828 1.78006V7.6539C0.844828 8.16693 1.26567 8.58819 1.77806 8.58819H7.9972C8.0614 8.58819 8.12223 8.6025 8.17666 8.62818L9.82897 9.30226L9.83017 1.78006C9.83011 1.27023 9.40878 0.845775 8.89531 0.845775ZM1.77806 0C0.799328 0 0 0.800164 0 1.78006V7.6539C0 8.6338 0.799388 9.43396 1.77806 9.43396H7.91573L10.0903 10.3211C10.3572 10.4297 10.6822 10.2451 10.6695 9.89841L10.6734 7.56649L10.6717 1.78012C10.6714 0.797264 9.87326 6.03793e-05 8.89531 6.03793e-05L1.77806 0ZM22.7744 9.46719C22.2809 8.97319 21.4332 9.32449 21.4332 10.0234C21.4332 10.7223 22.2809 11.0736 22.7744 10.5796C23.0811 10.2725 23.0811 9.77426 22.7744 9.46719ZM18.6729 13.7097C18.1794 13.2157 17.3316 13.567 17.3316 14.2659C17.3316 14.9648 18.1794 15.3161 18.6729 14.8222C18.9797 14.5151 18.9797 14.0169 18.6729 13.7097ZM13.8551 9.9909C13.3616 9.49691 12.5138 9.84827 12.5138 10.5471C12.5138 11.246 13.3616 11.5973 13.8551 11.1033C14.1619 10.7962 14.1618 10.298 13.8551 9.9909ZM9.62355 14.6155C9.13005 14.1216 8.28227 14.4728 8.28227 15.1718C8.28227 15.8707 9.13011 16.2219 9.62355 15.728C9.93028 15.4208 9.93028 14.9227 9.62355 14.6155ZM4.77092 24.765C4.53763 24.765 4.34851 24.9544 4.34851 25.1879V27.5771C4.34851 27.8107 4.53763 28 4.77092 28H27.5776C27.8109 28 28 27.8107 28 27.5771V25.1879C28 24.9544 27.8109 24.765 27.5776 24.765H24.8207V13.9425C24.8207 13.709 24.6316 13.5197 24.3983 13.5197H21.9161C21.6828 13.5197 21.4937 13.709 21.4937 13.9425V24.765H20.1298V17.2023C20.1298 16.9688 19.9406 16.7795 19.7074 16.7795H17.2251C16.9918 16.7795 16.8027 16.9688 16.8027 17.2023V24.7651H15.4749V14.8055C15.4749 14.5719 15.2858 14.3826 15.0525 14.3826H12.5703C12.337 14.3826 12.1478 14.5719 12.1478 14.8055V24.765H10.8548V18.3092C10.8548 18.0757 10.6657 17.8863 10.4324 17.8863H7.95019C7.7169 17.8863 7.52778 18.0757 7.52778 18.3092V24.765H4.77092ZM27.1552 25.6108V27.1543H5.19334V25.6108C12.5139 25.6108 19.8346 25.6108 27.1552 25.6108ZM10.01 18.7321V24.765H8.3726V18.7321H10.01ZM23.9759 14.3654H22.3385V24.7651H23.9759V14.3654ZM19.2849 17.6252V24.7651H17.6475V17.6252H19.2849ZM14.6301 15.2284H12.9927V24.765H14.6301V15.2284Z" fill="#F96B43"/>
</svg>
