<svg width="25" height="25" viewBox="0 0 25 25" fill="none" xmlns="http://www.w3.org/2000/svg">
<path d="M0.688807 10.1966C13.2552 10.1966 19.4383 6.0895 22.271 3.10378V5.54886C22.271 5.78849 22.4655 5.98296 22.7051 5.98296C22.9448 5.98296 23.1392 5.78849 23.1392 5.54886L23.1389 1.94963C23.1389 1.94147 23.1349 1.93521 23.1343 1.92705C23.1326 1.89631 23.1239 1.86804 23.1163 1.83901C23.1093 1.81359 23.1047 1.7876 23.0931 1.76369C23.0816 1.73997 23.0649 1.71967 23.0491 1.69823C23.0317 1.67394 23.0144 1.65023 22.9918 1.62936C22.9859 1.62423 22.9831 1.61664 22.9774 1.61133C22.9624 1.59919 22.9432 1.5952 22.9265 1.58534C22.9011 1.56978 22.8768 1.5546 22.8484 1.54417C22.8188 1.53373 22.7905 1.53032 22.7603 1.52671C22.7417 1.52443 22.7245 1.51514 22.7048 1.51514H18.7619C18.5223 1.51514 18.3278 1.70961 18.3278 1.94924C18.3278 2.18887 18.5223 2.38335 18.7619 2.38335H21.7534C19.0919 5.25833 13.1281 9.32807 0.688013 9.32807C0.448381 9.32807 0.253906 9.52255 0.253906 9.76218C0.254096 10.002 0.449139 10.1965 0.688771 10.1965L0.688807 10.1966Z" fill="#F96B43"/>
<path d="M6.25843 15.6036H0.688746C0.449114 15.6036 0.254639 15.7981 0.254639 16.0377V24.2405C0.254639 24.4801 0.449114 24.6746 0.688746 24.6746H6.25843C6.49806 24.6746 6.69254 24.4801 6.69254 24.2405L6.69235 16.0377C6.69235 15.7975 6.49806 15.6036 6.25843 15.6036ZM5.82432 23.8059H1.12276V16.4716H5.82432V23.8059Z" fill="#F96B43"/>
<path d="M23.9597 7.40186H23.2623C23.2217 7.40186 23.1847 7.41457 23.1477 7.425C23.1355 7.42842 23.1228 7.42785 23.1107 7.43259C23.0604 7.45176 23.0153 7.48002 22.9758 7.51588C22.9735 7.51759 22.9699 7.51816 22.9676 7.52044C22.9671 7.52101 22.9659 7.52157 22.9648 7.52271C22.9614 7.52613 22.9566 7.52916 22.9527 7.53315C21.6604 8.73568 20.0683 9.80348 18.2209 10.7087C18.2203 10.7093 18.2198 10.7098 18.2186 10.7098C18.2116 10.7133 18.2059 10.7169 18.1989 10.7203C18.1868 10.7262 18.1792 10.737 18.167 10.7446C18.1323 10.766 18.0987 10.788 18.0716 10.818C18.0566 10.8347 18.0473 10.8544 18.0352 10.8724C18.0166 10.8996 17.9982 10.9263 17.986 10.9569C17.9756 10.984 17.9739 11.0125 17.9693 11.0413C17.9659 11.0645 17.9561 11.0848 17.9561 11.1085V24.2398C17.9561 24.4794 18.1505 24.6739 18.3902 24.6739H23.9603C24.2 24.6739 24.3944 24.4794 24.3944 24.2398L24.3942 7.83621C24.3937 7.59658 24.1992 7.4021 23.9598 7.4021L23.9597 7.40186ZM23.5256 23.8059H18.8235V11.3716C20.5984 10.4793 22.1453 9.4386 23.4254 8.27022H23.5256L23.5256 23.8059Z" fill="#F96B43"/>
<path d="M15.5205 12.3149C15.5188 12.3098 15.5146 12.3067 15.5129 12.3022C15.5008 12.2709 15.4822 12.2454 15.4643 12.2183C15.451 12.198 15.44 12.176 15.4237 12.1587C15.4034 12.1367 15.378 12.1223 15.3531 12.1048C15.3323 12.0904 15.3139 12.073 15.2907 12.0625C15.2653 12.0504 15.2368 12.047 15.2091 12.0399C15.1814 12.0335 15.1553 12.0244 15.1264 12.0233C15.12 12.0233 15.1154 12.0198 15.1097 12.0198C15.082 12.0198 15.0583 12.0308 15.0315 12.0354C15.0112 12.0388 14.9904 12.036 14.9703 12.0436C13.2792 12.6177 11.4268 13.0818 9.46466 13.4222C9.44853 13.425 9.43639 13.4343 9.42064 13.4389C9.39104 13.4476 9.36334 13.4574 9.33621 13.4719C9.31249 13.4846 9.29162 13.4996 9.27132 13.5159C9.24874 13.5339 9.22844 13.5523 9.21004 13.5749C9.19258 13.5958 9.17873 13.6172 9.16545 13.6409C9.1516 13.6658 9.1406 13.6901 9.1313 13.7174C9.122 13.7445 9.11802 13.7718 9.1146 13.8012C9.11289 13.8174 9.10474 13.8325 9.10474 13.8498V24.2407C9.10474 24.4803 9.29921 24.6748 9.53885 24.6748H15.1091C15.3487 24.6748 15.5432 24.4803 15.5432 24.2407L15.543 12.4534C15.543 12.4285 15.5325 12.4065 15.5291 12.3822C15.5257 12.3597 15.5286 12.3371 15.5204 12.3145L15.5205 12.3149ZM9.9736 23.8059V14.2082C11.6305 13.9061 13.2057 13.5155 14.6758 13.0461V23.8056L9.9736 23.8059Z" fill="#F96B43"/>
<path d="M0.805002 6.73058C0.902146 6.76018 1.00346 6.78446 1.1082 6.80343C1.21236 6.82317 1.32525 6.83759 1.44611 6.84745C1.55198 6.85618 1.67 6.86073 1.79863 6.8613V7.56899L1.91152 7.59441C1.95839 7.60485 2.00468 7.61244 2.05268 7.61813C2.09955 7.62325 2.14641 7.62572 2.19327 7.62572C2.23502 7.62572 2.27941 7.62344 2.3276 7.61813C2.37618 7.61225 2.4219 7.60485 2.46478 7.59384L2.57407 7.56614V6.77098C2.956 6.67839 3.26223 6.50763 3.4844 6.26229C3.73276 5.98794 3.85874 5.63198 3.85874 5.20319C3.85874 4.98785 3.82857 4.79982 3.76899 4.64482C3.71018 4.48924 3.62556 4.35206 3.51798 4.23632C3.41381 4.124 3.28593 4.02629 3.13832 3.94395C2.99716 3.86653 2.84025 3.79178 2.67366 3.72234L2.40918 3.61078C2.26687 3.5512 2.13956 3.49618 2.02724 3.4459C1.92365 3.39942 1.83561 3.348 1.76446 3.29298C1.70071 3.24441 1.6527 3.18768 1.62083 3.12696C1.58972 3.06606 1.57397 2.99207 1.57397 2.9046C1.57397 2.72113 1.63127 2.59154 1.74871 2.50882C1.88058 2.41566 2.07923 2.3688 2.33896 2.3688C2.54026 2.3688 2.71918 2.38493 2.87135 2.41794C3.02466 2.45038 3.1624 2.48966 3.28175 2.53367L3.41247 2.58225L3.46579 2.45323C3.54965 2.25116 3.60411 2.04473 3.62839 1.83871L3.64167 1.72638L3.53656 1.68578C3.3935 1.63152 3.22217 1.58693 3.02714 1.55335C2.87858 1.52792 2.72679 1.50933 2.57406 1.49776V0.875072L2.46477 0.847371C2.29743 0.80563 2.07184 0.802784 1.9062 0.84794L1.79919 0.876969V1.53895C1.42408 1.60953 1.12545 1.75942 0.911442 1.98577C0.670672 2.23925 0.54848 2.56673 0.54848 2.95967C0.54848 3.15585 0.574474 3.32889 0.626651 3.47365C0.678827 3.62012 0.7551 3.75028 0.853574 3.859C0.948439 3.9643 1.06076 4.05632 1.18864 4.13278C1.3095 4.20507 1.44497 4.27167 1.58917 4.3301L1.92139 4.46784C2.08285 4.53729 2.22345 4.59857 2.34336 4.65131C2.45093 4.69875 2.54011 4.75149 2.60841 4.80765C2.67026 4.85907 2.71542 4.91637 2.74502 4.9841C2.77633 5.05355 2.79188 5.14329 2.79188 5.25144C2.79188 5.46678 2.71903 5.62938 2.56857 5.74968C2.4109 5.87586 2.15627 5.94017 1.81191 5.94017C1.58803 5.94017 1.39583 5.92158 1.24061 5.88515C1.07801 5.84702 0.919395 5.80243 0.766093 5.75272L0.635367 5.70984L0.586796 5.83885C0.547331 5.94017 0.512612 6.04433 0.481492 6.15191C0.449048 6.26366 0.427606 6.37712 0.417173 6.48812L0.406738 6.60215L0.515456 6.63858C0.614499 6.67159 0.710501 6.70233 0.804987 6.73059L0.805002 6.73058Z" fill="#F96B43"/>
</svg>
