<svg width="54" height="10" viewBox="0 0 54 10" fill="none" xmlns="http://www.w3.org/2000/svg">
<path d="M15.8846 0.854865C15.8433 0.885305 15.8067 0.921887 15.7748 0.964616L14.7047 3.98281H11.4945C11.4344 3.9841 11.3796 4.00239 11.3298 4.03769C11.2836 4.06813 11.247 4.10471 11.2201 4.14744C11.2114 4.21589 11.2114 4.27992 11.2201 4.33951C11.2465 4.39474 11.2831 4.44047 11.3298 4.4767L13.7993 6.39737L12.9212 9.443C12.9133 9.49788 12.9133 9.55275 12.9212 9.60763C12.9487 9.66336 12.9853 9.70909 13.031 9.74482C13.0756 9.77912 13.1214 9.79741 13.1682 9.7997C13.2365 9.80241 13.2914 9.78412 13.3328 9.74482L16.0217 8.01622L18.7107 9.74482C18.7706 9.78426 18.8254 9.80256 18.8753 9.7997C18.9401 9.79777 18.995 9.77948 19.0399 9.74482C19.086 9.70902 19.1135 9.66329 19.1223 9.60763C19.1486 9.55297 19.1486 9.49809 19.1223 9.443L18.2442 6.39737L20.7411 4.4767C20.7878 4.44104 20.8152 4.39531 20.8234 4.33951C20.8506 4.28435 20.8506 4.22947 20.8234 4.17488C20.8149 4.1185 20.7875 4.07277 20.7411 4.03769C20.6917 4.00225 20.6368 3.98395 20.5765 3.98281H17.3662L16.2961 0.964616C16.2874 0.922316 16.26 0.885733 16.2138 0.854865C16.1642 0.819782 16.1093 0.801488 16.0492 0.799988C15.9939 0.801417 15.939 0.81971 15.8846 0.854865ZM4.9093 0.854865C4.868 0.885305 4.83142 0.921887 4.79955 0.964616L3.72946 3.98281H0.519201C0.45918 3.9841 0.404303 4.00239 0.354572 4.03769C0.308341 4.06813 0.271757 4.10471 0.244819 4.14744C0.236102 4.21589 0.236102 4.27992 0.244819 4.33951C0.271257 4.39474 0.307841 4.44047 0.354572 4.4767L2.824 6.39737L1.94598 9.443C1.93805 9.49788 1.93805 9.55275 1.94598 9.60763C1.97349 9.66336 2.01008 9.70909 2.05574 9.74482C2.10039 9.77912 2.14612 9.79741 2.19293 9.7997C2.26124 9.80241 2.31611 9.78412 2.35756 9.74482L5.04649 8.01622L7.73543 9.74482C7.79531 9.78426 7.85018 9.80256 7.90006 9.7997C7.96487 9.79777 8.01974 9.77948 8.06469 9.74482C8.11078 9.70902 8.13821 9.66329 8.147 9.60763C8.17337 9.55297 8.17337 9.49809 8.147 9.443L7.26898 6.39737L9.76585 4.4767C9.81251 4.44104 9.83995 4.39531 9.84817 4.33951C9.87539 4.28435 9.87539 4.22947 9.84817 4.17488C9.83966 4.1185 9.81223 4.07277 9.76585 4.03769C9.71641 4.00225 9.66153 3.98395 9.60122 3.98281H6.39096L5.32087 0.964616C5.31216 0.922316 5.28472 0.885733 5.23856 0.854865C5.18897 0.819782 5.1341 0.801488 5.07393 0.799988C5.01863 0.801417 4.96375 0.81971 4.9093 0.854865ZM37.8351 0.854865C37.7938 0.885305 37.7572 0.921887 37.7253 0.964616L36.6552 3.98281H33.445C33.3849 3.9841 33.3301 4.00239 33.2803 4.03769C33.2341 4.06813 33.1975 4.10471 33.1706 4.14744C33.1619 4.21589 33.1619 4.27992 33.1706 4.33951C33.197 4.39474 33.2336 4.44047 33.2803 4.4767L35.7498 6.39737L34.8717 9.443C34.8638 9.49788 34.8638 9.55275 34.8717 9.60763C34.8993 9.66336 34.9358 9.70909 34.9815 9.74482C35.0262 9.77912 35.0719 9.79741 35.1187 9.7997C35.187 9.80241 35.2419 9.78412 35.2833 9.74482L37.9723 8.01622L40.6612 9.74482C40.7211 9.78426 40.7759 9.80256 40.8258 9.7997C40.8906 9.79777 40.9455 9.77948 40.9905 9.74482C41.0365 9.70902 41.064 9.66329 41.0728 9.60763C41.0991 9.55297 41.0991 9.49809 41.0728 9.443L40.1948 6.39737L42.6916 4.4767C42.7383 4.44104 42.7657 4.39531 42.7739 4.33951C42.8012 4.28435 42.8012 4.22947 42.7739 4.17488C42.7654 4.1185 42.738 4.07277 42.6916 4.03769C42.6422 4.00225 42.5873 3.98395 42.527 3.98281H39.3167L38.2466 0.964616C38.2379 0.922316 38.2105 0.885733 38.1643 0.854865C38.1147 0.819782 38.0599 0.801488 37.9997 0.799988C37.9444 0.801417 37.8895 0.81971 37.8351 0.854865ZM36.9845 4.4767C37.044 4.4459 37.0806 4.40017 37.0942 4.33951L37.9997 1.89751L38.8503 4.33951C38.8773 4.40046 38.9139 4.44619 38.96 4.4767C39.0098 4.512 39.0647 4.53029 39.1247 4.53157H41.7313L39.7283 6.09555C39.6827 6.13192 39.6461 6.17765 39.6185 6.23274C39.611 6.28747 39.611 6.34235 39.6185 6.39737L40.3594 8.89424L38.1095 7.44002C38.0727 7.42094 38.0269 7.41179 37.9723 7.41258C37.9177 7.41172 37.8629 7.42087 37.8076 7.44002L35.6126 8.89424L36.326 6.39737C36.3514 6.34235 36.3514 6.28747 36.326 6.23274C36.3164 6.17801 36.289 6.13228 36.2437 6.09555L34.2407 4.53157H36.8473C36.9028 4.52993 36.9485 4.51164 36.9845 4.4767ZM26.8598 0.854865C26.8185 0.885305 26.7819 0.921887 26.7501 0.964616L25.68 3.98281H22.4697C22.4097 3.9841 22.3548 4.00239 22.3051 4.03769C22.2589 4.06813 22.2223 4.10471 22.1953 4.14744C22.1866 4.21589 22.1866 4.27992 22.1953 4.33951C22.2218 4.39474 22.2584 4.44047 22.3051 4.4767L24.7745 6.39737L23.8965 9.443C23.8886 9.49788 23.8886 9.55275 23.8965 9.60763C23.924 9.66336 23.9606 9.70909 24.0062 9.74482C24.0509 9.77912 24.0966 9.79741 24.1434 9.7997C24.2117 9.80241 24.2666 9.78412 24.3081 9.74482L26.997 8.01622L29.6859 9.74482C29.7458 9.78426 29.8007 9.80256 29.8506 9.7997C29.9154 9.79777 29.9703 9.77948 30.0152 9.74482C30.0613 9.70902 30.0887 9.66329 30.0975 9.60763C30.1239 9.55297 30.1239 9.49809 30.0975 9.443L29.2195 6.39737L31.7164 4.4767C31.763 4.44104 31.7905 4.39531 31.7987 4.33951C31.8259 4.28435 31.8259 4.22947 31.7987 4.17488C31.7902 4.1185 31.7627 4.07277 31.7164 4.03769C31.6669 4.00225 31.612 3.98395 31.5517 3.98281H28.3415L27.2714 0.964616C27.2627 0.922316 27.2352 0.885733 27.1891 0.854865C27.1395 0.819782 27.0846 0.801488 27.0244 0.799988C26.9691 0.801417 26.9143 0.81971 26.8598 0.854865ZM48.8103 0.854865C48.769 0.885305 48.7324 0.921887 48.7006 0.964616L47.6305 3.98281H44.4202C44.3602 3.9841 44.3053 4.00239 44.2556 4.03769C44.2094 4.06813 44.1728 4.10471 44.1458 4.14744C44.1371 4.21589 44.1371 4.27992 44.1458 4.33951C44.1723 4.39474 44.2089 4.44047 44.2556 4.4767L46.725 6.39737L45.847 9.443C45.8391 9.49788 45.8391 9.55275 45.847 9.60763C45.8745 9.66336 45.9111 9.70909 45.9568 9.74482C46.0014 9.77912 46.0471 9.79741 46.0939 9.7997C46.1623 9.80241 46.2171 9.78412 46.2586 9.74482L48.9475 8.01622L51.6365 9.74482C51.6963 9.78426 51.7512 9.80256 51.8011 9.7997C51.8659 9.79777 51.9208 9.77948 51.9657 9.74482C52.0118 9.70902 52.0392 9.66329 52.048 9.60763C52.0744 9.55297 52.0744 9.49809 52.048 9.443L51.17 6.39737L53.6669 4.4767C53.7135 4.44104 53.741 4.39531 53.7492 4.33951C53.7764 4.28435 53.7764 4.22947 53.7492 4.17488C53.7407 4.1185 53.7132 4.07277 53.6669 4.03769C53.6174 4.00225 53.5626 3.98395 53.5022 3.98281H50.292L49.2219 0.964616C49.2132 0.922316 49.1857 0.885733 49.1396 0.854865C49.09 0.819782 49.0351 0.801488 48.975 0.799988C48.9196 0.801417 48.8648 0.81971 48.8103 0.854865ZM47.9597 4.4767C48.0193 4.4459 48.0558 4.40017 48.0695 4.33951L48.975 1.89751L49.8255 4.33951C49.8525 4.40046 49.8891 4.44619 49.9353 4.4767C49.9851 4.512 50.04 4.53029 50.0999 4.53157H52.7065L50.7036 6.09555C50.658 6.13192 50.6214 6.17765 50.5938 6.23274C50.5862 6.28747 50.5862 6.34235 50.5938 6.39737L51.3346 8.89424L49.0847 7.44002C49.0479 7.42094 49.0022 7.41179 48.9475 7.41258C48.893 7.41172 48.8381 7.42087 48.7829 7.44002L46.5878 8.89424L47.3012 6.39737C47.3267 6.34235 47.3267 6.28747 47.3012 6.23274C47.2917 6.17801 47.2642 6.13228 47.2189 6.09555L45.2159 4.53157H47.8225C47.8781 4.52993 47.9238 4.51164 47.9597 4.4767Z" fill="#F96B43"/>
</svg>
