<svg width="23" height="24" viewBox="0 0 23 24" fill="none" xmlns="http://www.w3.org/2000/svg">
<path fill-rule="evenodd" clip-rule="evenodd" d="M14.1179 19.8251L14.6215 21.3328H8.37682L8.88162 19.8251H14.1179ZM4.77815 22.1325L4.26764 24H18.7308L18.2203 22.1325H4.77815ZM21.5618 2.49077H16.9354V4.24452H21.2753V17.2718H1.72436V4.24452H6.06427V2.49077H1.43901C0.646426 2.49077 0 3.15004 0 3.95321V17.562C0 18.3675 0.647537 19.0245 1.43901 19.0245H21.5621C22.3524 19.0245 23 18.3664 23 17.562V3.95321C23 3.15004 22.3522 2.49077 21.5618 2.49077ZM16.1472 2.94342L11.8918 5.22412V9.75534L16.1472 7.47464V2.94342ZM11.1062 5.22412L6.85075 2.94342V7.47464L11.1062 9.75534V5.22412ZM15.727 2.26677L11.4991 0L7.27117 2.26677L11.4991 4.53353L15.727 2.26677ZM15.0704 12.5038H8.48067V13.7271H15.0704V12.5038ZM7.40241 15.6236V16.4721H16.1483V15.6236C16.1483 15.0212 15.6629 14.5279 15.0702 14.5279H8.48052C7.88666 14.5279 7.40241 15.0212 7.40241 15.6236Z" fill="#F96B43"/>
</svg>
